<svg width="12" height="12" viewBox="0 0 12 12" fill="none" xmlns="http://www.w3.org/2000/svg">
<path d="M10.1463 1.85372C11.1105 2.8179 10.0358 5.45585 7.7458 7.7458C5.45585 10.0358 2.8179 11.1105 1.85372 10.1463C0.889536 9.1821 1.96427 6.54415 4.2542 4.2542C6.54415 1.96427 9.1821 0.889536 10.1463 1.85372Z" stroke="white" stroke-linecap="round"/>
<path d="M1.85372 1.85372C0.889536 2.8179 1.96427 5.45585 4.2542 7.7458C6.54415 10.0358 9.1821 11.1105 10.1463 10.1463C11.1105 9.1821 10.0358 6.54415 7.7458 4.2542C5.45585 1.96427 2.8179 0.889536 1.85372 1.85372Z" stroke="white" stroke-linecap="round"/>
<path d="M7 6C7 6.5523 6.5523 7 6 7C5.4477 7 5 6.5523 5 6C5 5.4477 5.4477 5 6 5C6.5523 5 7 5.4477 7 6Z" stroke="white" stroke-linecap="round"/>
</svg>
