<svg width="12" height="12" viewBox="0 0 12 12" fill="none" xmlns="http://www.w3.org/2000/svg">
<path d="M9.5828 2.76449L6.3328 1.61743C6.11745 1.54142 5.88255 1.54142 5.6672 1.61743L2.41718 2.76449C2.01737 2.9056 1.75 3.2835 1.75 3.70748V7.61537C1.75 8.00272 1.97371 8.35527 2.3242 8.52017L5.5742 10.0496C5.8439 10.1765 6.1561 10.1765 6.4258 10.0496L9.6758 8.52017C10.0263 8.35527 10.25 8.00272 10.25 7.61537V3.70748C10.25 3.2835 9.98265 2.9056 9.5828 2.76449Z" stroke="#464646" strokeLinecap="round"/>
<path d="M6 5L8.8125 3.5625M6 5L3.1875 3.5625M6 5V8.75" stroke="#464646" strokeLinecap="round"/>
</svg>
