<svg width="12" height="12" viewBox="0 0 12 12" fill="none" xmlns="http://www.w3.org/2000/svg">
<path d="M4.50013 9.75H4.42783C3.73386 9.75 3.25088 9.06045 3.48803 8.40825L3.69555 7.8376C3.86913 7.36025 3.65728 6.8286 3.20297 6.6014L2.89455 6.4472C2.52603 6.26295 2.52603 5.73705 2.89455 5.5528L3.20297 5.3986C3.65728 5.1714 3.86913 4.63976 3.69555 4.16241L3.48803 3.59174C3.25088 2.93956 3.73386 2.25 4.42783 2.25H4.50013M7.50015 9.75H7.57245C8.2664 9.75 8.7494 9.06045 8.5122 8.40825L8.3047 7.8376C8.1311 7.36025 8.34295 6.8286 8.7973 6.6014L9.1057 6.4472C9.47425 6.26295 9.47425 5.73705 9.1057 5.5528L8.7973 5.3986C8.34295 5.1714 8.1311 4.63976 8.3047 4.16241L8.5122 3.59174C8.7494 2.93956 8.2664 2.25 7.57245 2.25H7.50015" stroke="#464646" stroke-linecap="round"/>
</svg>
