<svg width="288" height="163" viewBox="0 0 288 163" fill="none" xmlns="http://www.w3.org/2000/svg">
<line x1="76.6464" y1="151.646" x2="143.646" y2="84.6464" stroke="#50A764"/>
<path opacity="0.9" d="M0.528 140.504C0.504 140.072 0.548 139.672 0.66 139.304C0.772 138.936 0.944 138.62 1.176 138.356C1.416 138.084 1.712 137.872 2.064 137.72C2.416 137.568 2.816 137.492 3.264 137.492C3.632 137.492 3.976 137.548 4.296 137.66C4.624 137.764 4.908 137.92 5.148 138.128C5.388 138.328 5.576 138.58 5.712 138.884C5.856 139.188 5.928 139.54 5.928 139.94C5.928 140.316 5.868 140.648 5.748 140.936C5.636 141.224 5.484 141.484 5.292 141.716C5.1 141.94 4.88 142.144 4.632 142.328C4.384 142.512 4.128 142.688 3.864 142.856C3.6 143.016 3.336 143.176 3.072 143.336C2.808 143.488 2.564 143.652 2.34 143.828C2.124 144.004 1.936 144.196 1.776 144.404C1.624 144.604 1.524 144.836 1.476 145.1H5.844V146H0.288C0.328 145.496 0.416 145.068 0.552 144.716C0.696 144.356 0.876 144.044 1.092 143.78C1.308 143.516 1.552 143.284 1.824 143.084C2.096 142.884 2.38 142.696 2.676 142.52C3.036 142.296 3.352 142.092 3.624 141.908C3.896 141.716 4.12 141.524 4.296 141.332C4.48 141.14 4.616 140.932 4.704 140.708C4.8 140.484 4.848 140.224 4.848 139.928C4.848 139.696 4.804 139.488 4.716 139.304C4.628 139.112 4.508 138.948 4.356 138.812C4.212 138.676 4.04 138.572 3.84 138.5C3.64 138.428 3.428 138.392 3.204 138.392C2.908 138.392 2.652 138.456 2.436 138.584C2.228 138.704 2.056 138.864 1.92 139.064C1.784 139.264 1.684 139.492 1.62 139.748C1.564 139.996 1.54 140.248 1.548 140.504H0.528ZM8.25197 141.812C8.25197 142.132 8.25997 142.492 8.27597 142.892C8.29997 143.284 8.36397 143.656 8.46797 144.008C8.57997 144.352 8.75597 144.644 8.99597 144.884C9.23597 145.124 9.57197 145.244 10.004 145.244C10.436 145.244 10.772 145.124 11.012 144.884C11.252 144.644 11.424 144.352 11.528 144.008C11.64 143.656 11.704 143.284 11.72 142.892C11.744 142.492 11.756 142.132 11.756 141.812C11.756 141.604 11.752 141.376 11.744 141.128C11.744 140.872 11.724 140.62 11.684 140.372C11.652 140.116 11.6 139.868 11.528 139.628C11.464 139.388 11.364 139.18 11.228 139.004C11.1 138.82 10.936 138.672 10.736 138.56C10.536 138.448 10.292 138.392 10.004 138.392C9.71597 138.392 9.47197 138.448 9.27197 138.56C9.07197 138.672 8.90397 138.82 8.76797 139.004C8.63997 139.18 8.53997 139.388 8.46797 139.628C8.40397 139.868 8.35197 140.116 8.31197 140.372C8.27997 140.62 8.25997 140.872 8.25197 141.128C8.25197 141.376 8.25197 141.604 8.25197 141.812ZM7.17197 141.824C7.17197 141.512 7.17997 141.188 7.19597 140.852C7.21197 140.516 7.25197 140.188 7.31597 139.868C7.37997 139.548 7.47197 139.244 7.59197 138.956C7.71197 138.668 7.87597 138.416 8.08397 138.2C8.29197 137.984 8.55197 137.812 8.86397 137.684C9.18397 137.556 9.56397 137.492 10.004 137.492C10.444 137.492 10.82 137.556 11.132 137.684C11.452 137.812 11.716 137.984 11.924 138.2C12.132 138.416 12.296 138.668 12.416 138.956C12.536 139.244 12.628 139.548 12.692 139.868C12.756 140.188 12.796 140.516 12.812 140.852C12.828 141.188 12.836 141.512 12.836 141.824C12.836 142.136 12.828 142.46 12.812 142.796C12.796 143.132 12.756 143.46 12.692 143.78C12.628 144.1 12.536 144.404 12.416 144.692C12.296 144.972 12.132 145.22 11.924 145.436C11.716 145.652 11.456 145.824 11.144 145.952C10.832 146.072 10.452 146.132 10.004 146.132C9.56397 146.132 9.18397 146.072 8.86397 145.952C8.55197 145.824 8.29197 145.652 8.08397 145.436C7.87597 145.22 7.71197 144.972 7.59197 144.692C7.47197 144.404 7.37997 144.1 7.31597 143.78C7.25197 143.46 7.21197 143.132 7.19597 142.796C7.17997 142.46 7.17197 142.136 7.17197 141.824ZM17.4039 143.108V138.944H17.3799L14.5479 143.108H17.4039ZM18.3639 143.108H19.5159V144.008H18.3639V146H17.4039V144.008H13.6719V143.024L17.5479 137.492H18.3639V143.108ZM22.6199 141.14C22.6599 141.148 22.6959 141.152 22.7279 141.152C22.7679 141.152 22.8079 141.152 22.8479 141.152H23.0639C23.2799 141.152 23.4839 141.124 23.6759 141.068C23.8759 141.004 24.0479 140.916 24.1919 140.804C24.3439 140.684 24.4639 140.536 24.5519 140.36C24.6399 140.184 24.6839 139.984 24.6839 139.76C24.6839 139.304 24.5399 138.964 24.2519 138.74C23.9639 138.508 23.6039 138.392 23.1719 138.392C22.8999 138.392 22.6599 138.444 22.4519 138.548C22.2519 138.644 22.0839 138.776 21.9479 138.944C21.8199 139.112 21.7239 139.308 21.6599 139.532C21.5959 139.756 21.5639 139.992 21.5639 140.24H20.5439C20.5599 139.832 20.6239 139.46 20.7359 139.124C20.8559 138.788 21.0239 138.5 21.2399 138.26C21.4559 138.02 21.7239 137.832 22.0439 137.696C22.3719 137.56 22.7479 137.492 23.1719 137.492C23.5399 137.492 23.8799 137.54 24.1919 137.636C24.5119 137.724 24.7879 137.86 25.0199 138.044C25.2519 138.228 25.4319 138.464 25.5599 138.752C25.6959 139.04 25.7639 139.38 25.7639 139.772C25.7639 140.156 25.6519 140.496 25.4279 140.792C25.2039 141.088 24.9239 141.312 24.5879 141.464V141.488C25.1079 141.6 25.4919 141.844 25.7399 142.22C25.9959 142.596 26.1239 143.04 26.1239 143.552C26.1239 143.976 26.0439 144.352 25.8839 144.68C25.7319 145 25.5239 145.268 25.2599 145.484C24.9959 145.7 24.6839 145.864 24.3239 145.976C23.9719 146.08 23.5959 146.132 23.1959 146.132C22.7639 146.132 22.3719 146.072 22.0199 145.952C21.6679 145.832 21.3679 145.656 21.1199 145.424C20.8719 145.184 20.6799 144.892 20.5439 144.548C20.4159 144.204 20.3559 143.812 20.3639 143.372H21.3839C21.3999 143.924 21.5599 144.376 21.8639 144.728C22.1679 145.072 22.6119 145.244 23.1959 145.244C23.4439 145.244 23.6799 145.208 23.9039 145.136C24.1279 145.056 24.3239 144.948 24.4919 144.812C24.6599 144.668 24.7919 144.496 24.8879 144.296C24.9919 144.088 25.0439 143.856 25.0439 143.6C25.0439 143.336 24.9959 143.104 24.8999 142.904C24.8039 142.696 24.6759 142.524 24.5159 142.388C24.3559 142.244 24.1639 142.14 23.9399 142.076C23.7239 142.004 23.4879 141.968 23.2319 141.968C23.0159 141.968 22.8119 141.98 22.6199 142.004V141.14ZM30.0477 145.1H30.7797C30.8677 144.932 30.9557 144.704 31.0437 144.416C31.1397 144.12 31.2237 143.796 31.2957 143.444C31.3757 143.084 31.4397 142.704 31.4877 142.304C31.5357 141.904 31.5597 141.512 31.5597 141.128V139.796H36.0477V145.1H36.8877V147.884H35.9157V146H31.0197V147.884H30.0477V145.1ZM35.0277 145.1V140.696H32.5557V141.224C32.5557 141.616 32.5317 142.008 32.4837 142.4C32.4437 142.784 32.3877 143.148 32.3157 143.492C32.2437 143.836 32.1637 144.148 32.0757 144.428C31.9957 144.708 31.9157 144.932 31.8357 145.1H35.0277ZM40.4861 146.132C39.9901 146.132 39.5541 146.052 39.1781 145.892C38.8101 145.732 38.5021 145.508 38.2541 145.22C38.0061 144.932 37.8181 144.588 37.6901 144.188C37.5701 143.788 37.5101 143.352 37.5101 142.88C37.5101 142.416 37.5821 141.988 37.7261 141.596C37.8701 141.196 38.0701 140.852 38.3261 140.564C38.5901 140.276 38.8981 140.052 39.2501 139.892C39.6101 139.732 40.0021 139.652 40.4261 139.652C40.9781 139.652 41.4341 139.768 41.7941 140C42.1621 140.224 42.4541 140.512 42.6701 140.864C42.8941 141.216 43.0461 141.6 43.1261 142.016C43.2141 142.432 43.2501 142.828 43.2341 143.204H38.5901C38.5821 143.476 38.6141 143.736 38.6861 143.984C38.7581 144.224 38.8741 144.44 39.0341 144.632C39.1941 144.816 39.3981 144.964 39.6461 145.076C39.8941 145.188 40.1861 145.244 40.5221 145.244C40.9541 145.244 41.3061 145.144 41.5781 144.944C41.8581 144.744 42.0421 144.44 42.1301 144.032H43.1381C43.0021 144.736 42.7021 145.264 42.2381 145.616C41.7741 145.96 41.1901 146.132 40.4861 146.132ZM42.1541 142.304C42.1381 142.064 42.0821 141.836 41.9861 141.62C41.8981 141.404 41.7741 141.22 41.6141 141.068C41.4621 140.908 41.2781 140.784 41.0621 140.696C40.8541 140.6 40.6221 140.552 40.3661 140.552C40.1021 140.552 39.8621 140.6 39.6461 140.696C39.4381 140.784 39.2581 140.908 39.1061 141.068C38.9541 141.228 38.8341 141.416 38.7461 141.632C38.6581 141.84 38.6061 142.064 38.5901 142.304H42.1541ZM45.7914 140.696H43.5714V139.796H49.0314V140.696H46.8114V146H45.7914V140.696ZM51.5621 146.132C51.2821 146.132 51.0181 146.1 50.7701 146.036C50.5221 145.98 50.3021 145.884 50.1101 145.748C49.9261 145.604 49.7781 145.424 49.6661 145.208C49.5621 144.984 49.5101 144.716 49.5101 144.404C49.5101 144.052 49.5701 143.764 49.6901 143.54C49.8101 143.316 49.9661 143.136 50.1581 143C50.3581 142.856 50.5821 142.748 50.8301 142.676C51.0861 142.604 51.3461 142.544 51.6101 142.496C51.8901 142.44 52.1541 142.4 52.4021 142.376C52.6581 142.344 52.8821 142.304 53.0741 142.256C53.2661 142.2 53.4181 142.124 53.5301 142.028C53.6421 141.924 53.6981 141.776 53.6981 141.584C53.6981 141.36 53.6541 141.18 53.5661 141.044C53.4861 140.908 53.3781 140.804 53.2421 140.732C53.1141 140.66 52.9661 140.612 52.7981 140.588C52.6381 140.564 52.4781 140.552 52.3181 140.552C51.8861 140.552 51.5261 140.636 51.2381 140.804C50.9501 140.964 50.7941 141.272 50.7701 141.728H49.7501C49.7661 141.344 49.8461 141.02 49.9901 140.756C50.1341 140.492 50.3261 140.28 50.5661 140.12C50.8061 139.952 51.0781 139.832 51.3821 139.76C51.6941 139.688 52.0261 139.652 52.3781 139.652C52.6581 139.652 52.9341 139.672 53.2061 139.712C53.4861 139.752 53.7381 139.836 53.9621 139.964C54.1861 140.084 54.3661 140.256 54.5021 140.48C54.6381 140.704 54.7061 140.996 54.7061 141.356V144.548C54.7061 144.788 54.7181 144.964 54.7421 145.076C54.7741 145.188 54.8701 145.244 55.0301 145.244C55.1021 145.244 55.2061 145.224 55.3421 145.184V145.976C55.1661 146.08 54.9221 146.132 54.6101 146.132C54.3461 146.132 54.1341 146.06 53.9741 145.916C53.8221 145.764 53.7461 145.52 53.7461 145.184C53.4661 145.52 53.1381 145.764 52.7621 145.916C52.3941 146.06 51.9941 146.132 51.5621 146.132ZM51.7901 145.244C52.1261 145.244 52.4141 145.2 52.6541 145.112C52.8941 145.016 53.0901 144.9 53.2421 144.764C53.3941 144.62 53.5061 144.468 53.5781 144.308C53.6501 144.14 53.6861 143.984 53.6861 143.84V142.796C53.5581 142.9 53.3901 142.972 53.1821 143.012C52.9741 143.052 52.7541 143.088 52.5221 143.12C52.2981 143.152 52.0701 143.184 51.8381 143.216C51.6061 143.248 51.3981 143.304 51.2141 143.384C51.0301 143.464 50.8781 143.58 50.7581 143.732C50.6461 143.876 50.5901 144.076 50.5901 144.332C50.5901 144.5 50.6221 144.644 50.6861 144.764C50.7581 144.876 50.8461 144.968 50.9501 145.04C51.0621 145.112 51.1901 145.164 51.3341 145.196C51.4781 145.228 51.6301 145.244 51.7901 145.244ZM56.2434 146.072C56.1394 146.072 56.0314 146.06 55.9194 146.036C55.8074 146.02 55.7154 146.004 55.6434 145.988V145.088C55.7234 145.112 55.7954 145.128 55.8594 145.136C55.9314 145.144 55.9994 145.148 56.0634 145.148C56.3274 145.148 56.5274 145.044 56.6634 144.836C56.8074 144.628 56.9114 144.308 56.9754 143.876C57.0474 143.444 57.0914 142.892 57.1074 142.22C57.1234 141.54 57.1394 140.732 57.1554 139.796H61.5114V146H60.4914V140.696H58.1394C58.1154 141.424 58.0874 142.116 58.0554 142.772C58.0314 143.42 57.9634 143.988 57.8514 144.476C57.7394 144.964 57.5594 145.352 57.3114 145.64C57.0634 145.928 56.7074 146.072 56.2434 146.072ZM65.6932 146.132C65.1972 146.132 64.7612 146.052 64.3852 145.892C64.0172 145.732 63.7092 145.508 63.4612 145.22C63.2132 144.932 63.0252 144.588 62.8972 144.188C62.7772 143.788 62.7172 143.352 62.7172 142.88C62.7172 142.416 62.7892 141.988 62.9332 141.596C63.0772 141.196 63.2772 140.852 63.5332 140.564C63.7972 140.276 64.1052 140.052 64.4572 139.892C64.8172 139.732 65.2092 139.652 65.6332 139.652C66.1852 139.652 66.6412 139.768 67.0012 140C67.3692 140.224 67.6612 140.512 67.8772 140.864C68.1012 141.216 68.2532 141.6 68.3332 142.016C68.4212 142.432 68.4572 142.828 68.4412 143.204H63.7972C63.7892 143.476 63.8212 143.736 63.8932 143.984C63.9652 144.224 64.0812 144.44 64.2412 144.632C64.4012 144.816 64.6052 144.964 64.8532 145.076C65.1012 145.188 65.3932 145.244 65.7292 145.244C66.1612 145.244 66.5132 145.144 66.7852 144.944C67.0652 144.744 67.2492 144.44 67.3372 144.032H68.3452C68.2092 144.736 67.9092 145.264 67.4452 145.616C66.9812 145.96 66.3972 146.132 65.6932 146.132ZM67.3612 142.304C67.3452 142.064 67.2892 141.836 67.1932 141.62C67.1052 141.404 66.9812 141.22 66.8212 141.068C66.6692 140.908 66.4852 140.784 66.2692 140.696C66.0612 140.6 65.8292 140.552 65.5732 140.552C65.3092 140.552 65.0692 140.6 64.8532 140.696C64.6452 140.784 64.4652 140.908 64.3132 141.068C64.1612 141.228 64.0412 141.416 63.9532 141.632C63.8652 141.84 63.8132 142.064 63.7972 142.304H67.3612ZM69.4985 139.796H70.5185V144.86L73.4465 139.796H74.7545V146H73.7345V140.936L70.8065 146H69.4985V139.796ZM72.1265 138.884C71.8865 138.884 71.6625 138.848 71.4545 138.776C71.2465 138.704 71.0625 138.6 70.9025 138.464C70.7505 138.328 70.6265 138.164 70.5305 137.972C70.4425 137.772 70.3985 137.544 70.3985 137.288H71.2505C71.2665 137.88 71.5545 138.176 72.1145 138.176C72.3945 138.176 72.6065 138.1 72.7505 137.948C72.9025 137.788 72.9785 137.568 72.9785 137.288H73.8305C73.8305 137.528 73.7865 137.748 73.6985 137.948C73.6105 138.148 73.4905 138.316 73.3385 138.452C73.1865 138.588 73.0065 138.696 72.7985 138.776C72.5905 138.848 72.3665 138.884 72.1265 138.884Z" fill="#50A764"/>
<path opacity="0.9" d="M3.681 157.904C3.639 157.616 3.522 157.4 3.33 157.256C3.144 157.106 2.907 157.031 2.619 157.031C2.487 157.031 2.346 157.055 2.196 157.103C2.046 157.145 1.908 157.229 1.782 157.355C1.656 157.475 1.551 157.646 1.467 157.868C1.383 158.084 1.341 158.369 1.341 158.723C1.341 158.915 1.362 159.107 1.404 159.299C1.452 159.491 1.524 159.662 1.62 159.812C1.722 159.962 1.851 160.085 2.007 160.181C2.163 160.271 2.352 160.316 2.574 160.316C2.874 160.316 3.12 160.223 3.312 160.037C3.51 159.851 3.633 159.59 3.681 159.254H4.707C4.611 159.86 4.38 160.325 4.014 160.649C3.654 160.967 3.174 161.126 2.574 161.126C2.208 161.126 1.884 161.066 1.602 160.946C1.326 160.82 1.092 160.652 0.9 160.442C0.708 160.226 0.561 159.971 0.459 159.677C0.363 159.383 0.315 159.065 0.315 158.723C0.315 158.375 0.363 158.048 0.459 157.742C0.555 157.436 0.699 157.172 0.891 156.95C1.083 156.722 1.32 156.545 1.602 156.419C1.89 156.287 2.226 156.221 2.61 156.221C2.88 156.221 3.135 156.257 3.375 156.329C3.621 156.395 3.837 156.497 4.023 156.635C4.215 156.773 4.371 156.947 4.491 157.157C4.611 157.367 4.683 157.616 4.707 157.904H3.681ZM5.56798 156.347H7.25098L8.11498 159.668H8.13298L8.96098 156.347H10.635V161H9.59998V157.499H9.59098L8.63698 161H7.56598L6.61198 157.499H6.59398V161H5.56798V156.347ZM13.8791 161.126C13.5071 161.126 13.1741 161.066 12.8801 160.946C12.5921 160.82 12.3461 160.649 12.1421 160.433C11.9441 160.217 11.7911 159.959 11.6831 159.659C11.5811 159.359 11.5301 159.029 11.5301 158.669C11.5301 158.315 11.5811 157.988 11.6831 157.688C11.7911 157.388 11.9441 157.13 12.1421 156.914C12.3461 156.698 12.5921 156.53 12.8801 156.41C13.1741 156.284 13.5071 156.221 13.8791 156.221C14.2511 156.221 14.5811 156.284 14.8691 156.41C15.1631 156.53 15.4091 156.698 15.6071 156.914C15.8111 157.13 15.9641 157.388 16.0661 157.688C16.1741 157.988 16.2281 158.315 16.2281 158.669C16.2281 159.029 16.1741 159.359 16.0661 159.659C15.9641 159.959 15.8111 160.217 15.6071 160.433C15.4091 160.649 15.1631 160.82 14.8691 160.946C14.5811 161.066 14.2511 161.126 13.8791 161.126ZM13.8791 160.316C14.1071 160.316 14.3051 160.268 14.4731 160.172C14.6411 160.076 14.7791 159.95 14.8871 159.794C14.9951 159.638 15.0731 159.464 15.1211 159.272C15.1751 159.074 15.2021 158.873 15.2021 158.669C15.2021 158.471 15.1751 158.273 15.1211 158.075C15.0731 157.877 14.9951 157.703 14.8871 157.553C14.7791 157.397 14.6411 157.271 14.4731 157.175C14.3051 157.079 14.1071 157.031 13.8791 157.031C13.6511 157.031 13.4531 157.079 13.2851 157.175C13.1171 157.271 12.9791 157.397 12.8711 157.553C12.7631 157.703 12.6821 157.877 12.6281 158.075C12.5801 158.273 12.5561 158.471 12.5561 158.669C12.5561 158.873 12.5801 159.074 12.6281 159.272C12.6821 159.464 12.7631 159.638 12.8711 159.794C12.9791 159.95 13.1171 160.076 13.2851 160.172C13.4531 160.268 13.6511 160.316 13.8791 160.316ZM17.108 156.347H18.134V158.273H20.447V156.347H21.473V161H20.447V159.038H18.134V161H17.108V156.347ZM26.282 157.112H24.743V161H23.717V157.112H22.115V156.347H26.282V157.112ZM26.943 156.347H27.969V159.542H27.987L30.03 156.347H31.299V161H30.273V157.778H30.255L28.167 161H26.943V156.347ZM32.4449 156.347H33.4169V156.977H33.4349C33.5789 156.707 33.7799 156.515 34.0379 156.401C34.2959 156.281 34.5749 156.221 34.8749 156.221C35.2409 156.221 35.5589 156.287 35.8289 156.419C36.1049 156.545 36.3329 156.722 36.5129 156.95C36.6929 157.172 36.8279 157.433 36.9179 157.733C37.0079 158.033 37.0529 158.354 37.0529 158.696C37.0529 159.008 37.0109 159.311 36.9269 159.605C36.8489 159.899 36.7259 160.16 36.5579 160.388C36.3959 160.61 36.1889 160.79 35.9369 160.928C35.6849 161.06 35.3879 161.126 35.0459 161.126C34.8959 161.126 34.7459 161.111 34.5959 161.081C34.4459 161.057 34.3019 161.015 34.1639 160.955C34.0259 160.895 33.8969 160.82 33.7769 160.73C33.6629 160.634 33.5669 160.523 33.4889 160.397H33.4709V162.719H32.4449V156.347ZM36.0269 158.678C36.0269 158.468 35.9999 158.264 35.9459 158.066C35.8919 157.868 35.8109 157.694 35.7029 157.544C35.5949 157.388 35.4599 157.265 35.2979 157.175C35.1359 157.079 34.9499 157.031 34.7399 157.031C34.3079 157.031 33.9809 157.181 33.7589 157.481C33.5429 157.781 33.4349 158.18 33.4349 158.678C33.4349 158.912 33.4619 159.131 33.5159 159.335C33.5759 159.533 33.6629 159.704 33.7769 159.848C33.8909 159.992 34.0259 160.106 34.1819 160.19C34.3439 160.274 34.5299 160.316 34.7399 160.316C34.9739 160.316 35.1719 160.268 35.3339 160.172C35.4959 160.076 35.6279 159.953 35.7299 159.803C35.8379 159.647 35.9129 159.473 35.9549 159.281C36.0029 159.083 36.0269 158.882 36.0269 158.678ZM40.0529 161.126C39.6809 161.126 39.3479 161.066 39.0539 160.946C38.7659 160.82 38.5199 160.649 38.3159 160.433C38.1179 160.217 37.9649 159.959 37.8569 159.659C37.7549 159.359 37.7039 159.029 37.7039 158.669C37.7039 158.315 37.7549 157.988 37.8569 157.688C37.9649 157.388 38.1179 157.13 38.3159 156.914C38.5199 156.698 38.7659 156.53 39.0539 156.41C39.3479 156.284 39.6809 156.221 40.0529 156.221C40.4249 156.221 40.7549 156.284 41.0429 156.41C41.3369 156.53 41.5829 156.698 41.7809 156.914C41.9849 157.13 42.1379 157.388 42.2399 157.688C42.3479 157.988 42.4019 158.315 42.4019 158.669C42.4019 159.029 42.3479 159.359 42.2399 159.659C42.1379 159.959 41.9849 160.217 41.7809 160.433C41.5829 160.649 41.3369 160.82 41.0429 160.946C40.7549 161.066 40.4249 161.126 40.0529 161.126ZM40.0529 160.316C40.2809 160.316 40.4789 160.268 40.6469 160.172C40.8149 160.076 40.9529 159.95 41.0609 159.794C41.1689 159.638 41.2469 159.464 41.2949 159.272C41.3489 159.074 41.3759 158.873 41.3759 158.669C41.3759 158.471 41.3489 158.273 41.2949 158.075C41.2469 157.877 41.1689 157.703 41.0609 157.553C40.9529 157.397 40.8149 157.271 40.6469 157.175C40.4789 157.079 40.2809 157.031 40.0529 157.031C39.8249 157.031 39.6269 157.079 39.4589 157.175C39.2909 157.271 39.1529 157.397 39.0449 157.553C38.9369 157.703 38.8559 157.877 38.8019 158.075C38.7539 158.273 38.7299 158.471 38.7299 158.669C38.7299 158.873 38.7539 159.074 38.8019 159.272C38.8559 159.464 38.9369 159.638 39.0449 159.794C39.1529 159.95 39.2909 160.076 39.4589 160.172C39.6269 160.268 39.8249 160.316 40.0529 160.316ZM44.3078 158.246H45.4058C45.6038 158.246 45.7658 158.198 45.8918 158.102C46.0238 158 46.0898 157.859 46.0898 157.679C46.0898 157.469 46.0298 157.322 45.9098 157.238C45.7958 157.154 45.6278 157.112 45.4058 157.112H44.3078V158.246ZM43.2818 156.347H45.7298C46.1498 156.347 46.4858 156.443 46.7378 156.635C46.9898 156.821 47.1158 157.109 47.1158 157.499C47.1158 157.733 47.0558 157.934 46.9358 158.102C46.8218 158.27 46.6598 158.399 46.4498 158.489V158.507C46.7378 158.567 46.9538 158.702 47.0978 158.912C47.2478 159.122 47.3228 159.386 47.3228 159.704C47.3228 159.884 47.2898 160.055 47.2238 160.217C47.1578 160.373 47.0558 160.511 46.9178 160.631C46.7798 160.745 46.6028 160.835 46.3868 160.901C46.1708 160.967 45.9128 161 45.6128 161H43.2818V156.347ZM44.3078 160.235H45.5228C45.7748 160.235 45.9668 160.178 46.0988 160.064C46.2308 159.944 46.2968 159.779 46.2968 159.569C46.2968 159.359 46.2308 159.2 46.0988 159.092C45.9668 158.978 45.7748 158.921 45.5228 158.921H44.3078V160.235ZM52.0825 159.965C52.0825 160.091 52.0975 160.181 52.1275 160.235C52.1635 160.289 52.2295 160.316 52.3255 160.316H52.4335C52.4755 160.316 52.5235 160.31 52.5775 160.298V161.009C52.5415 161.021 52.4935 161.033 52.4335 161.045C52.3795 161.063 52.3225 161.078 52.2625 161.09C52.2025 161.102 52.1425 161.111 52.0825 161.117C52.0225 161.123 51.9715 161.126 51.9295 161.126C51.7195 161.126 51.5455 161.084 51.4075 161C51.2695 160.916 51.1795 160.769 51.1375 160.559C50.9335 160.757 50.6815 160.901 50.3815 160.991C50.0875 161.081 49.8025 161.126 49.5265 161.126C49.3165 161.126 49.1155 161.096 48.9235 161.036C48.7315 160.982 48.5605 160.901 48.4105 160.793C48.2665 160.679 48.1495 160.538 48.0595 160.37C47.9755 160.196 47.9335 159.995 47.9335 159.767C47.9335 159.479 47.9845 159.245 48.0865 159.065C48.1945 158.885 48.3325 158.744 48.5005 158.642C48.6745 158.54 48.8665 158.468 49.0765 158.426C49.2925 158.378 49.5085 158.342 49.7245 158.318C49.9105 158.282 50.0875 158.258 50.2555 158.246C50.4235 158.228 50.5705 158.201 50.6965 158.165C50.8285 158.129 50.9305 158.075 51.0025 158.003C51.0805 157.925 51.1195 157.811 51.1195 157.661C51.1195 157.529 51.0865 157.421 51.0205 157.337C50.9605 157.253 50.8825 157.19 50.7865 157.148C50.6965 157.1 50.5945 157.07 50.4805 157.058C50.3665 157.04 50.2585 157.031 50.1565 157.031C49.8685 157.031 49.6315 157.091 49.4455 157.211C49.2595 157.331 49.1545 157.517 49.1305 157.769H48.1045C48.1225 157.469 48.1945 157.22 48.3205 157.022C48.4465 156.824 48.6055 156.665 48.7975 156.545C48.9955 156.425 49.2175 156.341 49.4635 156.293C49.7095 156.245 49.9615 156.221 50.2195 156.221C50.4475 156.221 50.6725 156.245 50.8945 156.293C51.1165 156.341 51.3145 156.419 51.4885 156.527C51.6685 156.635 51.8125 156.776 51.9205 156.95C52.0285 157.118 52.0825 157.325 52.0825 157.571V159.965ZM51.0565 158.669C50.9005 158.771 50.7085 158.834 50.4805 158.858C50.2525 158.876 50.0245 158.906 49.7965 158.948C49.6885 158.966 49.5835 158.993 49.4815 159.029C49.3795 159.059 49.2895 159.104 49.2115 159.164C49.1335 159.218 49.0705 159.293 49.0225 159.389C48.9805 159.479 48.9595 159.59 48.9595 159.722C48.9595 159.836 48.9925 159.932 49.0585 160.01C49.1245 160.088 49.2025 160.151 49.2925 160.199C49.3885 160.241 49.4905 160.271 49.5985 160.289C49.7125 160.307 49.8145 160.316 49.9045 160.316C50.0185 160.316 50.1415 160.301 50.2735 160.271C50.4055 160.241 50.5285 160.19 50.6425 160.118C50.7625 160.046 50.8615 159.956 50.9395 159.848C51.0175 159.734 51.0565 159.596 51.0565 159.434V158.669ZM53.2135 156.347H54.2395V158.273H56.5525V156.347H57.5785V161H56.5525V159.038H54.2395V161H53.2135V156.347ZM60.8214 161.126C60.4494 161.126 60.1164 161.066 59.8224 160.946C59.5344 160.82 59.2884 160.649 59.0844 160.433C58.8864 160.217 58.7334 159.959 58.6254 159.659C58.5234 159.359 58.4724 159.029 58.4724 158.669C58.4724 158.315 58.5234 157.988 58.6254 157.688C58.7334 157.388 58.8864 157.13 59.0844 156.914C59.2884 156.698 59.5344 156.53 59.8224 156.41C60.1164 156.284 60.4494 156.221 60.8214 156.221C61.1934 156.221 61.5234 156.284 61.8114 156.41C62.1054 156.53 62.3514 156.698 62.5494 156.914C62.7534 157.13 62.9064 157.388 63.0084 157.688C63.1164 157.988 63.1704 158.315 63.1704 158.669C63.1704 159.029 63.1164 159.359 63.0084 159.659C62.9064 159.959 62.7534 160.217 62.5494 160.433C62.3514 160.649 62.1054 160.82 61.8114 160.946C61.5234 161.066 61.1934 161.126 60.8214 161.126ZM60.8214 160.316C61.0494 160.316 61.2474 160.268 61.4154 160.172C61.5834 160.076 61.7214 159.95 61.8294 159.794C61.9374 159.638 62.0154 159.464 62.0634 159.272C62.1174 159.074 62.1444 158.873 62.1444 158.669C62.1444 158.471 62.1174 158.273 62.0634 158.075C62.0154 157.877 61.9374 157.703 61.8294 157.553C61.7214 157.397 61.5834 157.271 61.4154 157.175C61.2474 157.079 61.0494 157.031 60.8214 157.031C60.5934 157.031 60.3954 157.079 60.2274 157.175C60.0594 157.271 59.9214 157.397 59.8134 157.553C59.7054 157.703 59.6244 157.877 59.5704 158.075C59.5224 158.273 59.4984 158.471 59.4984 158.669C59.4984 158.873 59.5224 159.074 59.5704 159.272C59.6244 159.464 59.7054 159.638 59.8134 159.794C59.9214 159.95 60.0594 160.076 60.2274 160.172C60.3954 160.268 60.5934 160.316 60.8214 160.316Z" fill="#50A764"/>
<line y1="151.5" x2="77" y2="151.5" stroke="#50A764"/>
<line x1="211.354" y1="17.3536" x2="144.354" y2="84.3535" stroke="#E05A32"/>
<path opacity="0.9" d="M211.567 21.847H212.593V23.773H214.906V21.847H215.932V26.5H214.906V24.538H212.593V26.5H211.567V21.847ZM220.237 23.764C220.225 23.602 220.189 23.446 220.129 23.296C220.075 23.146 219.997 23.017 219.895 22.909C219.799 22.795 219.679 22.705 219.535 22.639C219.397 22.567 219.241 22.531 219.067 22.531C218.887 22.531 218.722 22.564 218.572 22.63C218.428 22.69 218.302 22.777 218.194 22.891C218.092 22.999 218.008 23.128 217.942 23.278C217.882 23.428 217.849 23.59 217.843 23.764H220.237ZM217.843 24.439C217.843 24.619 217.867 24.793 217.915 24.961C217.969 25.129 218.047 25.276 218.149 25.402C218.251 25.528 218.38 25.63 218.536 25.708C218.692 25.78 218.878 25.816 219.094 25.816C219.394 25.816 219.634 25.753 219.814 25.627C220 25.495 220.138 25.3 220.228 25.042H221.2C221.146 25.294 221.053 25.519 220.921 25.717C220.789 25.915 220.63 26.083 220.444 26.221C220.258 26.353 220.048 26.452 219.814 26.518C219.586 26.59 219.346 26.626 219.094 26.626C218.728 26.626 218.404 26.566 218.122 26.446C217.84 26.326 217.6 26.158 217.402 25.942C217.21 25.726 217.063 25.468 216.961 25.168C216.865 24.868 216.817 24.538 216.817 24.178C216.817 23.848 216.868 23.536 216.97 23.242C217.078 22.942 217.228 22.681 217.42 22.459C217.618 22.231 217.855 22.051 218.131 21.919C218.407 21.787 218.719 21.721 219.067 21.721C219.433 21.721 219.76 21.799 220.048 21.955C220.342 22.105 220.585 22.306 220.777 22.558C220.969 22.81 221.107 23.101 221.191 23.431C221.281 23.755 221.305 24.091 221.263 24.439H217.843ZM227.689 23.404C227.647 23.116 227.53 22.9 227.338 22.756C227.152 22.606 226.915 22.531 226.627 22.531C226.495 22.531 226.354 22.555 226.204 22.603C226.054 22.645 225.916 22.729 225.79 22.855C225.664 22.975 225.559 23.146 225.475 23.368C225.391 23.584 225.349 23.869 225.349 24.223C225.349 24.415 225.37 24.607 225.412 24.799C225.46 24.991 225.532 25.162 225.628 25.312C225.73 25.462 225.859 25.585 226.015 25.681C226.171 25.771 226.36 25.816 226.582 25.816C226.882 25.816 227.128 25.723 227.32 25.537C227.518 25.351 227.641 25.09 227.689 24.754H228.715C228.619 25.36 228.388 25.825 228.022 26.149C227.662 26.467 227.182 26.626 226.582 26.626C226.216 26.626 225.892 26.566 225.61 26.446C225.334 26.32 225.1 26.152 224.908 25.942C224.716 25.726 224.569 25.471 224.467 25.177C224.371 24.883 224.323 24.565 224.323 24.223C224.323 23.875 224.371 23.548 224.467 23.242C224.563 22.936 224.707 22.672 224.899 22.45C225.091 22.222 225.328 22.045 225.61 21.919C225.898 21.787 226.234 21.721 226.618 21.721C226.888 21.721 227.143 21.757 227.383 21.829C227.629 21.895 227.845 21.997 228.031 22.135C228.223 22.273 228.379 22.447 228.499 22.657C228.619 22.867 228.691 23.116 228.715 23.404H227.689ZM229.576 21.847H231.259L232.123 25.168H232.141L232.969 21.847H234.643V26.5H233.608V22.999H233.599L232.645 26.5H231.574L230.62 22.999H230.602V26.5H229.576V21.847ZM237.887 26.626C237.515 26.626 237.182 26.566 236.888 26.446C236.6 26.32 236.354 26.149 236.15 25.933C235.952 25.717 235.799 25.459 235.691 25.159C235.589 24.859 235.538 24.529 235.538 24.169C235.538 23.815 235.589 23.488 235.691 23.188C235.799 22.888 235.952 22.63 236.15 22.414C236.354 22.198 236.6 22.03 236.888 21.91C237.182 21.784 237.515 21.721 237.887 21.721C238.259 21.721 238.589 21.784 238.877 21.91C239.171 22.03 239.417 22.198 239.615 22.414C239.819 22.63 239.972 22.888 240.074 23.188C240.182 23.488 240.236 23.815 240.236 24.169C240.236 24.529 240.182 24.859 240.074 25.159C239.972 25.459 239.819 25.717 239.615 25.933C239.417 26.149 239.171 26.32 238.877 26.446C238.589 26.566 238.259 26.626 237.887 26.626ZM237.887 25.816C238.115 25.816 238.313 25.768 238.481 25.672C238.649 25.576 238.787 25.45 238.895 25.294C239.003 25.138 239.081 24.964 239.129 24.772C239.183 24.574 239.21 24.373 239.21 24.169C239.21 23.971 239.183 23.773 239.129 23.575C239.081 23.377 239.003 23.203 238.895 23.053C238.787 22.897 238.649 22.771 238.481 22.675C238.313 22.579 238.115 22.531 237.887 22.531C237.659 22.531 237.461 22.579 237.293 22.675C237.125 22.771 236.987 22.897 236.879 23.053C236.771 23.203 236.69 23.377 236.636 23.575C236.588 23.773 236.564 23.971 236.564 24.169C236.564 24.373 236.588 24.574 236.636 24.772C236.69 24.964 236.771 25.138 236.879 25.294C236.987 25.45 237.125 25.576 237.293 25.672C237.461 25.768 237.659 25.816 237.887 25.816ZM241.116 21.847H242.142V23.773H244.455V21.847H245.481V26.5H244.455V24.538H242.142V26.5H241.116V21.847ZM250.29 22.612H248.751V26.5H247.725V22.612H246.123V21.847H250.29V22.612ZM250.951 21.847H251.977V25.042H251.995L254.038 21.847H255.307V26.5H254.281V23.278H254.263L252.175 26.5H250.951V21.847ZM256.453 21.847H257.425V22.477H257.443C257.587 22.207 257.788 22.015 258.046 21.901C258.304 21.781 258.583 21.721 258.883 21.721C259.249 21.721 259.567 21.787 259.837 21.919C260.113 22.045 260.341 22.222 260.521 22.45C260.701 22.672 260.836 22.933 260.926 23.233C261.016 23.533 261.061 23.854 261.061 24.196C261.061 24.508 261.019 24.811 260.935 25.105C260.857 25.399 260.734 25.66 260.566 25.888C260.404 26.11 260.197 26.29 259.945 26.428C259.693 26.56 259.396 26.626 259.054 26.626C258.904 26.626 258.754 26.611 258.604 26.581C258.454 26.557 258.31 26.515 258.172 26.455C258.034 26.395 257.905 26.32 257.785 26.23C257.671 26.134 257.575 26.023 257.497 25.897H257.479V28.219H256.453V21.847ZM260.035 24.178C260.035 23.968 260.008 23.764 259.954 23.566C259.9 23.368 259.819 23.194 259.711 23.044C259.603 22.888 259.468 22.765 259.306 22.675C259.144 22.579 258.958 22.531 258.748 22.531C258.316 22.531 257.989 22.681 257.767 22.981C257.551 23.281 257.443 23.68 257.443 24.178C257.443 24.412 257.47 24.631 257.524 24.835C257.584 25.033 257.671 25.204 257.785 25.348C257.899 25.492 258.034 25.606 258.19 25.69C258.352 25.774 258.538 25.816 258.748 25.816C258.982 25.816 259.18 25.768 259.342 25.672C259.504 25.576 259.636 25.453 259.738 25.303C259.846 25.147 259.921 24.973 259.963 24.781C260.011 24.583 260.035 24.382 260.035 24.178ZM264.061 26.626C263.689 26.626 263.356 26.566 263.062 26.446C262.774 26.32 262.528 26.149 262.324 25.933C262.126 25.717 261.973 25.459 261.865 25.159C261.763 24.859 261.712 24.529 261.712 24.169C261.712 23.815 261.763 23.488 261.865 23.188C261.973 22.888 262.126 22.63 262.324 22.414C262.528 22.198 262.774 22.03 263.062 21.91C263.356 21.784 263.689 21.721 264.061 21.721C264.433 21.721 264.763 21.784 265.051 21.91C265.345 22.03 265.591 22.198 265.789 22.414C265.993 22.63 266.146 22.888 266.248 23.188C266.356 23.488 266.41 23.815 266.41 24.169C266.41 24.529 266.356 24.859 266.248 25.159C266.146 25.459 265.993 25.717 265.789 25.933C265.591 26.149 265.345 26.32 265.051 26.446C264.763 26.566 264.433 26.626 264.061 26.626ZM264.061 25.816C264.289 25.816 264.487 25.768 264.655 25.672C264.823 25.576 264.961 25.45 265.069 25.294C265.177 25.138 265.255 24.964 265.303 24.772C265.357 24.574 265.384 24.373 265.384 24.169C265.384 23.971 265.357 23.773 265.303 23.575C265.255 23.377 265.177 23.203 265.069 23.053C264.961 22.897 264.823 22.771 264.655 22.675C264.487 22.579 264.289 22.531 264.061 22.531C263.833 22.531 263.635 22.579 263.467 22.675C263.299 22.771 263.161 22.897 263.053 23.053C262.945 23.203 262.864 23.377 262.81 23.575C262.762 23.773 262.738 23.971 262.738 24.169C262.738 24.373 262.762 24.574 262.81 24.772C262.864 24.964 262.945 25.138 263.053 25.294C263.161 25.45 263.299 25.576 263.467 25.672C263.635 25.768 263.833 25.816 264.061 25.816ZM268.316 23.746H269.414C269.612 23.746 269.774 23.698 269.9 23.602C270.032 23.5 270.098 23.359 270.098 23.179C270.098 22.969 270.038 22.822 269.918 22.738C269.804 22.654 269.636 22.612 269.414 22.612H268.316V23.746ZM267.29 21.847H269.738C270.158 21.847 270.494 21.943 270.746 22.135C270.998 22.321 271.124 22.609 271.124 22.999C271.124 23.233 271.064 23.434 270.944 23.602C270.83 23.77 270.668 23.899 270.458 23.989V24.007C270.746 24.067 270.962 24.202 271.106 24.412C271.256 24.622 271.331 24.886 271.331 25.204C271.331 25.384 271.298 25.555 271.232 25.717C271.166 25.873 271.064 26.011 270.926 26.131C270.788 26.245 270.611 26.335 270.395 26.401C270.179 26.467 269.921 26.5 269.621 26.5H267.29V21.847ZM268.316 25.735H269.531C269.783 25.735 269.975 25.678 270.107 25.564C270.239 25.444 270.305 25.279 270.305 25.069C270.305 24.859 270.239 24.7 270.107 24.592C269.975 24.478 269.783 24.421 269.531 24.421H268.316V25.735ZM276.09 25.465C276.09 25.591 276.105 25.681 276.135 25.735C276.171 25.789 276.237 25.816 276.333 25.816H276.441C276.483 25.816 276.531 25.81 276.585 25.798V26.509C276.549 26.521 276.501 26.533 276.441 26.545C276.387 26.563 276.33 26.578 276.27 26.59C276.21 26.602 276.15 26.611 276.09 26.617C276.03 26.623 275.979 26.626 275.937 26.626C275.727 26.626 275.553 26.584 275.415 26.5C275.277 26.416 275.187 26.269 275.145 26.059C274.941 26.257 274.689 26.401 274.389 26.491C274.095 26.581 273.81 26.626 273.534 26.626C273.324 26.626 273.123 26.596 272.931 26.536C272.739 26.482 272.568 26.401 272.418 26.293C272.274 26.179 272.157 26.038 272.067 25.87C271.983 25.696 271.941 25.495 271.941 25.267C271.941 24.979 271.992 24.745 272.094 24.565C272.202 24.385 272.34 24.244 272.508 24.142C272.682 24.04 272.874 23.968 273.084 23.926C273.3 23.878 273.516 23.842 273.732 23.818C273.918 23.782 274.095 23.758 274.263 23.746C274.431 23.728 274.578 23.701 274.704 23.665C274.836 23.629 274.938 23.575 275.01 23.503C275.088 23.425 275.127 23.311 275.127 23.161C275.127 23.029 275.094 22.921 275.028 22.837C274.968 22.753 274.89 22.69 274.794 22.648C274.704 22.6 274.602 22.57 274.488 22.558C274.374 22.54 274.266 22.531 274.164 22.531C273.876 22.531 273.639 22.591 273.453 22.711C273.267 22.831 273.162 23.017 273.138 23.269H272.112C272.13 22.969 272.202 22.72 272.328 22.522C272.454 22.324 272.613 22.165 272.805 22.045C273.003 21.925 273.225 21.841 273.471 21.793C273.717 21.745 273.969 21.721 274.227 21.721C274.455 21.721 274.68 21.745 274.902 21.793C275.124 21.841 275.322 21.919 275.496 22.027C275.676 22.135 275.82 22.276 275.928 22.45C276.036 22.618 276.09 22.825 276.09 23.071V25.465ZM275.064 24.169C274.908 24.271 274.716 24.334 274.488 24.358C274.26 24.376 274.032 24.406 273.804 24.448C273.696 24.466 273.591 24.493 273.489 24.529C273.387 24.559 273.297 24.604 273.219 24.664C273.141 24.718 273.078 24.793 273.03 24.889C272.988 24.979 272.967 25.09 272.967 25.222C272.967 25.336 273 25.432 273.066 25.51C273.132 25.588 273.21 25.651 273.3 25.699C273.396 25.741 273.498 25.771 273.606 25.789C273.72 25.807 273.822 25.816 273.912 25.816C274.026 25.816 274.149 25.801 274.281 25.771C274.413 25.741 274.536 25.69 274.65 25.618C274.77 25.546 274.869 25.456 274.947 25.348C275.025 25.234 275.064 25.096 275.064 24.934V24.169ZM277.221 21.847H278.247V23.773H280.56V21.847H281.586V26.5H280.56V24.538H278.247V26.5H277.221V21.847ZM284.829 26.626C284.457 26.626 284.124 26.566 283.83 26.446C283.542 26.32 283.296 26.149 283.092 25.933C282.894 25.717 282.741 25.459 282.633 25.159C282.531 24.859 282.48 24.529 282.48 24.169C282.48 23.815 282.531 23.488 282.633 23.188C282.741 22.888 282.894 22.63 283.092 22.414C283.296 22.198 283.542 22.03 283.83 21.91C284.124 21.784 284.457 21.721 284.829 21.721C285.201 21.721 285.531 21.784 285.819 21.91C286.113 22.03 286.359 22.198 286.557 22.414C286.761 22.63 286.914 22.888 287.016 23.188C287.124 23.488 287.178 23.815 287.178 24.169C287.178 24.529 287.124 24.859 287.016 25.159C286.914 25.459 286.761 25.717 286.557 25.933C286.359 26.149 286.113 26.32 285.819 26.446C285.531 26.566 285.201 26.626 284.829 26.626ZM284.829 25.816C285.057 25.816 285.255 25.768 285.423 25.672C285.591 25.576 285.729 25.45 285.837 25.294C285.945 25.138 286.023 24.964 286.071 24.772C286.125 24.574 286.152 24.373 286.152 24.169C286.152 23.971 286.125 23.773 286.071 23.575C286.023 23.377 285.945 23.203 285.837 23.053C285.729 22.897 285.591 22.771 285.423 22.675C285.255 22.579 285.057 22.531 284.829 22.531C284.601 22.531 284.403 22.579 284.235 22.675C284.067 22.771 283.929 22.897 283.821 23.053C283.713 23.203 283.632 23.377 283.578 23.575C283.53 23.773 283.506 23.971 283.506 24.169C283.506 24.373 283.53 24.574 283.578 24.772C283.632 24.964 283.713 25.138 283.821 25.294C283.929 25.45 284.067 25.576 284.235 25.672C284.403 25.768 284.601 25.816 284.829 25.816Z" fill="#E05A32"/>
<path opacity="0.9" d="M231.108 3.512C230.676 3.936 230.272 4.44 229.896 5.024C229.52 5.608 229.184 6.232 228.888 6.896C228.6 7.56 228.364 8.244 228.18 8.948C227.996 9.652 227.884 10.336 227.844 11H226.704C226.752 10.28 226.868 9.58 227.052 8.9C227.244 8.212 227.488 7.556 227.784 6.932C228.08 6.3 228.42 5.704 228.804 5.144C229.196 4.584 229.616 4.068 230.064 3.596H225.6V2.636H231.108V3.512ZM235.736 8.108V3.944H235.712L232.88 8.108H235.736ZM236.696 8.108H237.848V9.008H236.696V11H235.736V9.008H232.004V8.024L235.88 2.492H236.696V8.108ZM240.952 6.14C240.992 6.148 241.028 6.152 241.06 6.152C241.1 6.152 241.14 6.152 241.18 6.152H241.396C241.612 6.152 241.816 6.124 242.008 6.068C242.208 6.004 242.38 5.916 242.524 5.804C242.676 5.684 242.796 5.536 242.884 5.36C242.972 5.184 243.016 4.984 243.016 4.76C243.016 4.304 242.872 3.964 242.584 3.74C242.296 3.508 241.936 3.392 241.504 3.392C241.232 3.392 240.992 3.444 240.784 3.548C240.584 3.644 240.416 3.776 240.28 3.944C240.152 4.112 240.056 4.308 239.992 4.532C239.928 4.756 239.896 4.992 239.896 5.24H238.876C238.892 4.832 238.956 4.46 239.068 4.124C239.188 3.788 239.356 3.5 239.572 3.26C239.788 3.02 240.056 2.832 240.376 2.696C240.704 2.56 241.08 2.492 241.504 2.492C241.872 2.492 242.212 2.54 242.524 2.636C242.844 2.724 243.12 2.86 243.352 3.044C243.584 3.228 243.764 3.464 243.892 3.752C244.028 4.04 244.096 4.38 244.096 4.772C244.096 5.156 243.984 5.496 243.76 5.792C243.536 6.088 243.256 6.312 242.92 6.464V6.488C243.44 6.6 243.824 6.844 244.072 7.22C244.328 7.596 244.456 8.04 244.456 8.552C244.456 8.976 244.376 9.352 244.216 9.68C244.064 10 243.856 10.268 243.592 10.484C243.328 10.7 243.016 10.864 242.656 10.976C242.304 11.08 241.928 11.132 241.528 11.132C241.096 11.132 240.704 11.072 240.352 10.952C240 10.832 239.7 10.656 239.452 10.424C239.204 10.184 239.012 9.892 238.876 9.548C238.748 9.204 238.688 8.812 238.696 8.372H239.716C239.732 8.924 239.892 9.376 240.196 9.728C240.5 10.072 240.944 10.244 241.528 10.244C241.776 10.244 242.012 10.208 242.236 10.136C242.46 10.056 242.656 9.948 242.824 9.812C242.992 9.668 243.124 9.496 243.22 9.296C243.324 9.088 243.376 8.856 243.376 8.6C243.376 8.336 243.328 8.104 243.232 7.904C243.136 7.696 243.008 7.524 242.848 7.388C242.688 7.244 242.496 7.14 242.272 7.076C242.056 7.004 241.82 6.968 241.564 6.968C241.348 6.968 241.144 6.98 240.952 7.004V6.14ZM248.38 10.1H249.112C249.2 9.932 249.288 9.704 249.376 9.416C249.472 9.12 249.556 8.796 249.628 8.444C249.708 8.084 249.772 7.704 249.82 7.304C249.868 6.904 249.892 6.512 249.892 6.128V4.796H254.38V10.1H255.22V12.884H254.248V11H249.352V12.884H248.38V10.1ZM253.36 10.1V5.696H250.888V6.224C250.888 6.616 250.864 7.008 250.816 7.4C250.776 7.784 250.72 8.148 250.648 8.492C250.576 8.836 250.496 9.148 250.408 9.428C250.328 9.708 250.248 9.932 250.168 10.1H253.36ZM258.818 11.132C258.322 11.132 257.886 11.052 257.51 10.892C257.142 10.732 256.834 10.508 256.586 10.22C256.338 9.932 256.15 9.588 256.022 9.188C255.902 8.788 255.842 8.352 255.842 7.88C255.842 7.416 255.914 6.988 256.058 6.596C256.202 6.196 256.402 5.852 256.658 5.564C256.922 5.276 257.23 5.052 257.582 4.892C257.942 4.732 258.334 4.652 258.758 4.652C259.31 4.652 259.766 4.768 260.126 5C260.494 5.224 260.786 5.512 261.002 5.864C261.226 6.216 261.378 6.6 261.458 7.016C261.546 7.432 261.582 7.828 261.566 8.204H256.922C256.914 8.476 256.946 8.736 257.018 8.984C257.09 9.224 257.206 9.44 257.366 9.632C257.526 9.816 257.73 9.964 257.978 10.076C258.226 10.188 258.518 10.244 258.854 10.244C259.286 10.244 259.638 10.144 259.91 9.944C260.19 9.744 260.374 9.44 260.462 9.032H261.47C261.334 9.736 261.034 10.264 260.57 10.616C260.106 10.96 259.522 11.132 258.818 11.132ZM260.486 7.304C260.47 7.064 260.414 6.836 260.318 6.62C260.23 6.404 260.106 6.22 259.946 6.068C259.794 5.908 259.61 5.784 259.394 5.696C259.186 5.6 258.954 5.552 258.698 5.552C258.434 5.552 258.194 5.6 257.978 5.696C257.77 5.784 257.59 5.908 257.438 6.068C257.286 6.228 257.166 6.416 257.078 6.632C256.99 6.84 256.938 7.064 256.922 7.304H260.486ZM264.123 5.696H261.903V4.796H267.363V5.696H265.143V11H264.123V5.696ZM269.894 11.132C269.614 11.132 269.35 11.1 269.102 11.036C268.854 10.98 268.634 10.884 268.442 10.748C268.258 10.604 268.11 10.424 267.998 10.208C267.894 9.984 267.842 9.716 267.842 9.404C267.842 9.052 267.902 8.764 268.022 8.54C268.142 8.316 268.298 8.136 268.49 8C268.69 7.856 268.914 7.748 269.162 7.676C269.418 7.604 269.678 7.544 269.942 7.496C270.222 7.44 270.486 7.4 270.734 7.376C270.99 7.344 271.214 7.304 271.406 7.256C271.598 7.2 271.75 7.124 271.862 7.028C271.974 6.924 272.03 6.776 272.03 6.584C272.03 6.36 271.986 6.18 271.898 6.044C271.818 5.908 271.71 5.804 271.574 5.732C271.446 5.66 271.298 5.612 271.13 5.588C270.97 5.564 270.81 5.552 270.65 5.552C270.218 5.552 269.858 5.636 269.57 5.804C269.282 5.964 269.126 6.272 269.102 6.728H268.082C268.098 6.344 268.178 6.02 268.322 5.756C268.466 5.492 268.658 5.28 268.898 5.12C269.138 4.952 269.41 4.832 269.714 4.76C270.026 4.688 270.358 4.652 270.71 4.652C270.99 4.652 271.266 4.672 271.538 4.712C271.818 4.752 272.07 4.836 272.294 4.964C272.518 5.084 272.698 5.256 272.834 5.48C272.97 5.704 273.038 5.996 273.038 6.356V9.548C273.038 9.788 273.05 9.964 273.074 10.076C273.106 10.188 273.202 10.244 273.362 10.244C273.434 10.244 273.538 10.224 273.674 10.184V10.976C273.498 11.08 273.254 11.132 272.942 11.132C272.678 11.132 272.466 11.06 272.306 10.916C272.154 10.764 272.078 10.52 272.078 10.184C271.798 10.52 271.47 10.764 271.094 10.916C270.726 11.06 270.326 11.132 269.894 11.132ZM270.122 10.244C270.458 10.244 270.746 10.2 270.986 10.112C271.226 10.016 271.422 9.9 271.574 9.764C271.726 9.62 271.838 9.468 271.91 9.308C271.982 9.14 272.018 8.984 272.018 8.84V7.796C271.89 7.9 271.722 7.972 271.514 8.012C271.306 8.052 271.086 8.088 270.854 8.12C270.63 8.152 270.402 8.184 270.17 8.216C269.938 8.248 269.73 8.304 269.546 8.384C269.362 8.464 269.21 8.58 269.09 8.732C268.978 8.876 268.922 9.076 268.922 9.332C268.922 9.5 268.954 9.644 269.018 9.764C269.09 9.876 269.178 9.968 269.282 10.04C269.394 10.112 269.522 10.164 269.666 10.196C269.81 10.228 269.962 10.244 270.122 10.244ZM274.575 11.072C274.471 11.072 274.363 11.06 274.251 11.036C274.139 11.02 274.047 11.004 273.975 10.988V10.088C274.055 10.112 274.127 10.128 274.191 10.136C274.263 10.144 274.331 10.148 274.395 10.148C274.659 10.148 274.859 10.044 274.995 9.836C275.139 9.628 275.243 9.308 275.307 8.876C275.379 8.444 275.423 7.892 275.439 7.22C275.455 6.54 275.471 5.732 275.487 4.796H279.843V11H278.823V5.696H276.471C276.447 6.424 276.419 7.116 276.387 7.772C276.363 8.42 276.295 8.988 276.183 9.476C276.071 9.964 275.891 10.352 275.643 10.64C275.395 10.928 275.039 11.072 274.575 11.072ZM281.385 4.796H282.405V9.86L285.333 4.796H286.641V11H285.621V5.936L282.693 11H281.385V4.796Z" fill="#E05A32"/>
<line x1="288" y1="17.5" x2="211" y2="17.5" stroke="#E05A32"/>
<path d="M143.5 152C180.779 152 211 121.779 211 84.5C211 47.2208 180.779 17 143.5 17C106.221 17 76 47.2208 76 84.5C76 121.779 106.221 152 143.5 152Z" fill="#50A764"/>
<path d="M143.5 152C106.221 152 76 121.779 76 84.5C76 47.2207 106.221 17 143.5 17V152Z" fill="#50A764"/>
<path d="M143.5 17V84.5H211C211 47.2207 180.779 17 143.5 17Z" fill="#E05A32"/>
<path d="M143.5 84.5L194.056 129.219C203.139 118.957 209.15 105.912 210.637 91.5225C210.876 89.2141 210.999 86.8718 210.999 84.5H143.5Z" fill="#E05A32"/>
<circle cx="144" cy="85" r="45" fill="white"/>
</svg>
