<svg width="27" height="27" viewBox="0 0 27 27" fill="none" xmlns="http://www.w3.org/2000/svg">
<g clip-path="url(#clip0_221_15959)">
<path d="M16.3125 6.75002L5.625 6.75M16.3125 6.75002C16.3125 8.30332 17.5717 9.5625 19.125 9.5625C20.6783 9.5625 21.9375 8.3033 21.9375 6.75C21.9375 5.1967 20.6783 3.9375 19.125 3.9375C17.5717 3.9375 16.3125 5.19671 16.3125 6.75002ZM21.375 13.5H10.6875M10.6875 13.5C10.6875 15.0533 9.4283 16.3125 7.875 16.3125C6.3217 16.3125 5.0625 15.0533 5.0625 13.5C5.0625 11.9467 6.3217 10.6875 7.875 10.6875C9.4283 10.6875 10.6875 11.9467 10.6875 13.5ZM16.3125 20.25H5.625M16.3125 20.25C16.3125 21.8033 17.5717 23.0625 19.125 23.0625C20.6783 23.0625 21.9375 21.8033 21.9375 20.25C21.9375 18.6967 20.6783 17.4375 19.125 17.4375C17.5717 17.4375 16.3125 18.6967 16.3125 20.25Z" stroke="#333333" stroke-width="1.8" stroke-linecap="round"/>
</g>
<defs>
<clipPath id="clip0_221_15959">
<rect width="27" height="27" fill="white"/>
</clipPath>
</defs>
</svg>
