<svg width="12" height="12" viewBox="0 0 12 12" fill="none" xmlns="http://www.w3.org/2000/svg">
<path d="M7.5 10H2.5C1.94771 10 1.5 9.5523 1.5 9V3C1.5 2.44771 1.94771 2 2.5 2H4.26124C4.66528 2 5.0296 2.24314 5.18465 2.61624L5.2439 2.75876C5.39895 3.13186 5.7633 3.375 6.16735 3.375H8.625C9.10825 3.375 9.5 3.76675 9.5 4.25M2.7972 10H8.7291C9.1834 10 9.5806 9.6938 9.6962 9.2545L10.585 5.87725C10.6684 5.5602 10.4293 5.25 10.1014 5.25H3.52089C3.06662 5.25 2.66942 5.5562 2.55381 5.9955L1.83013 8.7455C1.66326 9.3796 2.14153 10 2.7972 10Z" stroke="white" strokeLinecap="round"/>
</svg>
