<svg width="27" height="27" viewBox="0 0 27 27" fill="none" xmlns="http://www.w3.org/2000/svg">
<rect width="27" height="27" rx="9" fill="white"/>
<path d="M20.75 13C20.75 16.728 17.728 19.75 14 19.75C10.2721 19.75 7.25 16.728 7.25 13C7.25 9.27208 10.2721 6.25 14 6.25C17.728 6.25 20.75 9.27208 20.75 13Z" stroke="#333333" stroke-width="1.2" strokeLinecap="round"/>
<path d="M13.25 13V16C13.25 16.4142 13.5858 16.75 14 16.75C14.4142 16.75 14.75 16.4142 14.75 16V13C14.75 12.5858 14.4142 12.25 14 12.25C13.5858 12.25 13.25 12.5858 13.25 13Z" fill="#333333"/>
<path d="M14.75 10C14.75 9.58579 14.4142 9.25 14 9.25C13.5858 9.25 13.25 9.58579 13.25 10C13.25 10.4142 13.5858 10.75 14 10.75C14.4142 10.75 14.75 10.4142 14.75 10Z" fill="#333333"/>
</svg>
