<svg width="18" height="18" viewBox="0 0 18 18" fill="none" xmlns="http://www.w3.org/2000/svg">
<g clip-path="url(#clip0_225_15956)">
<path d="M10.875 4.50002L3.75 4.5M10.875 4.50002C10.875 5.53555 11.7145 6.375 12.75 6.375C13.7855 6.375 14.625 5.53553 14.625 4.5C14.625 3.46447 13.7855 2.625 12.75 2.625C11.7145 2.625 10.875 3.46448 10.875 4.50002ZM14.25 9H7.12501M7.12501 9C7.12501 10.0355 6.28553 10.875 5.25 10.875C4.21447 10.875 3.375 10.0355 3.375 9C3.375 7.96448 4.21447 7.125 5.25 7.125C6.28553 7.125 7.12501 7.96448 7.12501 9ZM10.875 13.5H3.75M10.875 13.5C10.875 14.5355 11.7145 15.375 12.75 15.375C13.7855 15.375 14.625 14.5355 14.625 13.5C14.625 12.4645 13.7855 11.625 12.75 11.625C11.7145 11.625 10.875 12.4645 10.875 13.5Z" stroke="#333333" stroke-width="1.2" stroke-linecap="round"/>
</g>
<defs>
<clipPath id="clip0_225_15956">
<rect width="18" height="18" fill="white"/>
</clipPath>
</defs>
</svg>
