<svg width="18" height="18" viewBox="0 0 18 18" fill="none" xmlns="http://www.w3.org/2000/svg">
<path d="M6.88948 7.99673L11.107 5.87109M11.003 12.375L6.82399 10.125M15.375 4.875C15.375 6.11764 14.3677 7.125 13.125 7.125C11.8823 7.125 10.875 6.11764 10.875 4.875C10.875 3.63236 11.8823 2.625 13.125 2.625C14.3677 2.625 15.375 3.63236 15.375 4.875ZM7.125 9C7.125 10.2427 6.11764 11.25 4.875 11.25C3.63236 11.25 2.625 10.2427 2.625 9C2.625 7.75732 3.63236 6.75 4.875 6.75C6.11764 6.75 7.125 7.75732 7.125 9ZM15.375 13.125C15.375 14.3677 14.3677 15.375 13.125 15.375C11.8823 15.375 10.875 14.3677 10.875 13.125C10.875 11.8823 11.8823 10.875 13.125 10.875C14.3677 10.875 15.375 11.8823 15.375 13.125Z" stroke="#474747" stroke-width="1.25" stroke-linecap="round"/>
</svg>
