<svg width="12" height="12" viewBox="0 0 12 12" fill="none" xmlns="http://www.w3.org/2000/svg">
<path d="M8.38375 4.67574L9.6522 5.32607C10.0118 5.50592 10.0229 6.01512 9.6714 6.21037L6.4857 7.98022C6.1837 8.14802 5.81645 8.14802 5.5144 7.98022L2.32871 6.21037C1.97723 6.01512 1.98829 5.50592 2.34793 5.32607L3.61638 4.67574M8.38375 6.92577L9.6522 7.57607C10.0118 7.75592 10.0229 8.26512 9.6714 8.46037L6.4857 10.2302C6.1837 10.398 5.81645 10.398 5.5144 10.2302L2.32871 8.46037C1.97723 8.26512 1.98829 7.75592 2.34793 7.57607L3.61638 6.92577M6.4473 1.47362L9.6522 3.07608C10.0118 3.2559 10.0229 3.7651 9.6714 3.96037L6.4857 5.73022C6.1837 5.89802 5.81645 5.89802 5.5144 5.73022L2.32871 3.96037C1.97723 3.7651 1.98829 3.25589 2.34793 3.07608L5.55285 1.47362C5.8344 1.33285 6.16575 1.33285 6.4473 1.47362Z" stroke="#464646" strokeLinecap="round"/>
</svg>
